<svg width="79" height="56" viewBox="0 0 79 56" fill="none" xmlns="http://www.w3.org/2000/svg">
<path d="M38.1738 45.4225L43.0337 55.9943L56.5446 45.4225H38.1738Z" fill="white"/>
<path d="M5.22966 0C2.35492 0 0 1.6779 0 3.73179V41.7231C0 43.7714 2.35492 45.4493 5.22966 45.4493H56.274L35.7885 0H5.22966Z" fill="white"/>
<path d="M29.3969 24.1555C29.199 25.8549 27.149 28.373 22.1863 28.373C17.8885 28.373 14.4058 25.8549 14.4058 22.7534C14.4058 19.6519 17.8885 17.1338 22.1863 17.1338C24.6321 17.1338 26.2626 17.8853 27.1965 18.4966L30.4575 16.2757C28.3126 14.8736 25.5186 13.9987 22.1863 13.9987C15.3715 13.9987 9.83887 17.9189 9.83887 22.7478C9.83887 27.5766 15.3715 31.4969 22.1863 31.4969C29.3257 31.4969 34.043 27.9468 34.043 22.9385C34.043 22.2206 33.9164 21.6934 33.7502 21.155H22.1942V24.1499L29.3969 24.1555Z" fill="#6C5DD3"/>
</svg>
